<svg version="1.1" xmlns="http://www.w3.org/2000/svg" viewBox="0 0 180.90342530551845 115.44947756984487" width="180.90342530551845" height="115.44947756984487">
  <!-- svg-source:excalidraw -->
  
  <g stroke-linecap="round" transform="translate(10 79.94947756984487) rotate(0 13 12.5)"><path d="M6.25 0 C10.34 0.35, 11.94 -1.2, 19.75 0 M6.25 0 C9.29 -0.68, 13.49 -0.14, 19.75 0 M19.75 0 C23.28 1.68, 24.01 0.99, 26 6.25 M19.75 0 C23.3 0.89, 24.45 3.57, 26 6.25 M26 6.25 C25.88 12.18, 25.74 16.5, 26 18.75 M26 6.25 C25.39 9.69, 26.43 13.61, 26 18.75 M26 18.75 C25.98 21.7, 22.38 24.92, 19.75 25 M26 18.75 C26.98 25.15, 25.86 27.14, 19.75 25 M19.75 25 C15.27 24.41, 14.39 24.58, 6.25 25 M19.75 25 C15.8 25.67, 12.39 24.44, 6.25 25 M6.25 25 C1.1 24.19, -0.15 23.2, 0 18.75 M6.25 25 C2.83 23.97, 1.16 24.28, 0 18.75 M0 18.75 C-0.22 16.6, 1.05 13.31, 0 6.25 M0 18.75 C0.68 14.75, -0.41 11.08, 0 6.25 M0 6.25 C-0.09 3.11, 1.27 0.42, 6.25 0 M0 6.25 C-0.86 -0.07, 2.31 -0.23, 6.25 0" stroke="#ffffff" stroke-width="2" fill="none"></path></g><g stroke-linecap="round" transform="translate(37 80.44947756984487) rotate(0 13 12.5)"><path d="M6.25 0 C9.44 1.7, 18.12 -0.71, 19.75 0 C25.58 3, 26.28 3.12, 26 6.25 C24.29 11.08, 23.75 11.52, 26 18.75 C28.59 25.46, 21.87 23.52, 19.75 25 C13.86 25.3, 9.36 26.92, 6.25 25 C2.8 24.84, -3.07 22.4, 0 18.75 C1.13 16.04, 1.88 10.89, 0 6.25 C0.26 0.34, 4.81 1.44, 6.25 0" stroke="none" stroke-width="0" fill="#b2f2bb"></path><path d="M6.25 0 C8.66 -0.27, 11.06 0.14, 19.75 0 M6.25 0 C9.63 -0.42, 13.91 -0.14, 19.75 0 M19.75 0 C24.2 0.65, 25.11 3.09, 26 6.25 M19.75 0 C25.28 -2.02, 26.15 2.45, 26 6.25 M26 6.25 C25.91 10.03, 25.33 12.2, 26 18.75 M26 6.25 C26.31 11.19, 26.32 15.94, 26 18.75 M26 18.75 C26.42 22.17, 22.05 25.2, 19.75 25 M26 18.75 C25.77 23.07, 23.71 22.86, 19.75 25 M19.75 25 C15.57 25.21, 9.57 25.55, 6.25 25 M19.75 25 C16.76 25.44, 13.14 24.54, 6.25 25 M6.25 25 C2.2 26.88, -0.67 24.52, 0 18.75 M6.25 25 C4.06 24.86, -2.27 23.33, 0 18.75 M0 18.75 C0.39 13.91, -0.99 11.31, 0 6.25 M0 18.75 C-0.51 15.68, -0.4 13.65, 0 6.25 M0 6.25 C-1.74 3.94, 1.28 -0.39, 6.25 0 M0 6.25 C-2.05 0.67, 2.06 -1.19, 6.25 0" stroke="#2f9e44" stroke-width="2" fill="none"></path></g><g stroke-linecap="round" transform="translate(63.84806116750883 80.08521257297099) rotate(0 13 12.5)"><path d="M6.25 0 C8.41 0.46, 12.01 -1.06, 19.75 0 M6.25 0 C9.09 0.53, 12.83 -0.23, 19.75 0 M19.75 0 C22.13 -1.23, 25.98 1.05, 26 6.25 M19.75 0 C25.46 0.4, 27.6 0.41, 26 6.25 M26 6.25 C26.68 12, 26.2 16.03, 26 18.75 M26 6.25 C25.51 9.48, 25.36 11.5, 26 18.75 M26 18.75 C27.44 24.33, 22.78 24.18, 19.75 25 M26 18.75 C27.53 24.32, 24.82 24.1, 19.75 25 M19.75 25 C15.85 25.04, 10.27 24.91, 6.25 25 M19.75 25 C15.06 25.63, 10.24 25.49, 6.25 25 M6.25 25 C2.23 24.03, 1.51 23.71, 0 18.75 M6.25 25 C0.44 24.65, 1.93 21.66, 0 18.75 M0 18.75 C0.63 14.84, -0.5 11.54, 0 6.25 M0 18.75 C0.02 14.49, 0.39 11.62, 0 6.25 M0 6.25 C1.36 0.87, 2.2 1.5, 6.25 0 M0 6.25 C1.83 1.83, -0.07 2, 6.25 0" stroke="#ffffff" stroke-width="2" fill="none"></path></g><g stroke-linecap="round" transform="translate(90.21486141031914 79.39616868693474) rotate(0 13 12.5)"><path d="M6.25 0 C11.41 0.85, 13.3 -0.9, 19.75 0 M6.25 0 C9.52 -0.22, 13.34 0.56, 19.75 0 M19.75 0 C25.13 -1.42, 24.37 2.4, 26 6.25 M19.75 0 C24.48 -0.87, 27.23 0.45, 26 6.25 M26 6.25 C26.88 8.92, 24.98 12.1, 26 18.75 M26 6.25 C25.65 9.54, 25.81 11.48, 26 18.75 M26 18.75 C25.07 22.32, 22.11 25.82, 19.75 25 M26 18.75 C25.93 21.72, 23.74 23.74, 19.75 25 M19.75 25 C13.16 24.06, 9.17 25.35, 6.25 25 M19.75 25 C14.86 24.5, 10.06 25.21, 6.25 25 M6.25 25 C3.54 26.83, 0.49 22.84, 0 18.75 M6.25 25 C2.16 27.28, 1.53 23.34, 0 18.75 M0 18.75 C-0.63 15.58, 0.05 13.4, 0 6.25 M0 18.75 C0.2 15.74, 0.62 12.88, 0 6.25 M0 6.25 C0.04 3.88, 3.85 -0.61, 6.25 0 M0 6.25 C-0.68 4.02, 3.54 -0.2, 6.25 0" stroke="#ffffff" stroke-width="2" fill="none"></path></g><g stroke-linecap="round" transform="translate(117.21486141031914 79.89616868693474) rotate(0 13 12.5)"><path d="M6.25 0 C9.07 -1, 13.6 -0.42, 19.75 0 M6.25 0 C10.35 0.62, 15.3 -0.44, 19.75 0 M19.75 0 C22.29 0.32, 26.49 1.33, 26 6.25 M19.75 0 C25.14 -1.64, 25.37 1.36, 26 6.25 M26 6.25 C25.11 9.62, 25.14 14.49, 26 18.75 M26 6.25 C25.8 9.27, 25.65 12.83, 26 18.75 M26 18.75 C24.19 23.74, 23.86 23.96, 19.75 25 M26 18.75 C25.82 21.65, 26.2 24.86, 19.75 25 M19.75 25 C15.18 25.18, 11.17 26.09, 6.25 25 M19.75 25 C16.8 25.2, 13.64 25.53, 6.25 25 M6.25 25 C2.57 24.92, 0.07 24.9, 0 18.75 M6.25 25 C3.61 25.43, -1.56 22.87, 0 18.75 M0 18.75 C0.11 15.64, -0.5 11.11, 0 6.25 M0 18.75 C0.54 15.4, -0.02 11.58, 0 6.25 M0 6.25 C1.76 1.47, 1.49 1.69, 6.25 0 M0 6.25 C1.46 1.88, 1.6 1.95, 6.25 0" stroke="#ffffff" stroke-width="2" fill="none"></path></g><g stroke-linecap="round" transform="translate(144.06292257782798 79.53190369006086) rotate(0 13 12.5)"><path d="M6.25 0 C10.74 -0.25, 16.29 -0.68, 19.75 0 M6.25 0 C10.33 -0.6, 13.04 -0.01, 19.75 0 M19.75 0 C24.41 -0.75, 27.07 0.66, 26 6.25 M19.75 0 C23.29 -0.72, 27.08 3.77, 26 6.25 M26 6.25 C24.95 8.82, 25.53 11.67, 26 18.75 M26 6.25 C25.68 10.81, 25.41 16.01, 26 18.75 M26 18.75 C25.94 21.88, 23.76 23.9, 19.75 25 M26 18.75 C28.28 22.78, 25.15 22.95, 19.75 25 M19.75 25 C17.68 26.22, 12.92 25.29, 6.25 25 M19.75 25 C17.05 25.68, 13.52 25.03, 6.25 25 M6.25 25 C2.15 26.98, 1.33 23.29, 0 18.75 M6.25 25 C0.53 24.95, -0.34 21.76, 0 18.75 M0 18.75 C-0.56 14.76, 0.11 12.1, 0 6.25 M0 18.75 C-0.1 15.2, 0.44 10.33, 0 6.25 M0 6.25 C-0.59 3.77, 3.35 -0.18, 6.25 0 M0 6.25 C-0.48 4.03, 2.74 -1.23, 6.25 0" stroke="#ffffff" stroke-width="2" fill="none"></path></g><g stroke-linecap="round" transform="translate(10.840502727690478 10.553308882910187) rotate(0 13 12.5)"><path d="M6.25 0 C11.1 -1.33, 13.16 -0.18, 19.75 0 M6.25 0 C10.67 -0.27, 14.35 -0.47, 19.75 0 M19.75 0 C23.2 1.67, 24.65 0.24, 26 6.25 M19.75 0 C24.82 -1.36, 23.95 2.5, 26 6.25 M26 6.25 C25.25 8.97, 25.22 11.75, 26 18.75 M26 6.25 C26.59 9.91, 25.73 14.28, 26 18.75 M26 18.75 C25.42 21.48, 24.67 23.4, 19.75 25 M26 18.75 C26.38 24.91, 22.1 22.85, 19.75 25 M19.75 25 C15.94 24.36, 13.4 26.15, 6.25 25 M19.75 25 C16.38 25.23, 14.77 25.11, 6.25 25 M6.25 25 C2.59 23.67, -0.71 21.69, 0 18.75 M6.25 25 C2.22 23.72, 0.51 21.77, 0 18.75 M0 18.75 C1.01 15.12, -0.73 12, 0 6.25 M0 18.75 C-0.21 15.08, -0.31 12, 0 6.25 M0 6.25 C0.15 1.98, 2.64 -1.68, 6.25 0 M0 6.25 C1.09 4.01, 1.39 -0.1, 6.25 0" stroke="#ffffff" stroke-width="2" fill="none"></path></g><g stroke-linecap="round" transform="translate(37.84050272769048 11.053308882910187) rotate(0 13 12.5)"><path d="M6.25 0 C9.38 -0.03, 14.94 0.68, 19.75 0 M6.25 0 C10.76 -0.35, 15.91 0.6, 19.75 0 M19.75 0 C22.57 -1.84, 26.78 0.9, 26 6.25 M19.75 0 C21.87 0.42, 24.81 4.19, 26 6.25 M26 6.25 C25.02 8.95, 25.93 13.77, 26 18.75 M26 6.25 C25.76 10.42, 25.92 13.16, 26 18.75 M26 18.75 C26.76 21.32, 24.25 26.73, 19.75 25 M26 18.75 C24.19 20.76, 22.87 25.18, 19.75 25 M19.75 25 C15.47 26, 8.83 26.03, 6.25 25 M19.75 25 C15.86 25.11, 11.15 24.59, 6.25 25 M6.25 25 C1.38 23.78, 0.12 21.81, 0 18.75 M6.25 25 C2.59 23.85, -0.21 23.83, 0 18.75 M0 18.75 C-0.78 15.01, -0.36 10.62, 0 6.25 M0 18.75 C-0.23 14.77, 0.08 10.29, 0 6.25 M0 6.25 C0.56 0.41, 3.03 1.67, 6.25 0 M0 6.25 C-0.69 1.98, 2.53 1.59, 6.25 0" stroke="#ffffff" stroke-width="2" fill="none"></path></g><g stroke-linecap="round" transform="translate(64.68856389519908 10.689043886036302) rotate(0 13 12.5)"><path d="M6.25 0 C9.21 0.57, 12.62 0.32, 19.75 0 M6.25 0 C9.71 0.64, 13.19 -0.55, 19.75 0 M19.75 0 C24.7 -1.18, 24.22 2.45, 26 6.25 M19.75 0 C22.72 2.1, 25.35 0.5, 26 6.25 M26 6.25 C25.93 10.35, 25.84 14.03, 26 18.75 M26 6.25 C25.75 9.34, 26.17 12.83, 26 18.75 M26 18.75 C26.33 24.65, 22.34 23.13, 19.75 25 M26 18.75 C24.96 23.09, 25.2 24.37, 19.75 25 M19.75 25 C15.1 26.21, 13.42 23.83, 6.25 25 M19.75 25 C15.47 24.57, 10.62 24.6, 6.25 25 M6.25 25 C2.2 23.89, 0.44 21.92, 0 18.75 M6.25 25 C1.87 25.91, 0.94 24.86, 0 18.75 M0 18.75 C-0.19 15.39, 0.53 10.9, 0 6.25 M0 18.75 C0.1 15.33, 0.23 11.45, 0 6.25 M0 6.25 C0.95 3.76, 1.48 -0.09, 6.25 0 M0 6.25 C0.44 3.67, 4.08 0.99, 6.25 0" stroke="#ffffff" stroke-width="2" fill="none"></path></g><g stroke-linecap="round" transform="translate(91.0553641380094 10) rotate(0 13 12.5)"><path d="M6.25 0 C11.04 0.25, 13.68 -0.94, 19.75 0 M6.25 0 C9.08 -0.73, 13.09 -0.51, 19.75 0 M19.75 0 C22.13 0.36, 24.96 3.91, 26 6.25 M19.75 0 C23.27 -1.59, 25.3 0.44, 26 6.25 M26 6.25 C25.93 10.34, 25.79 11.66, 26 18.75 M26 6.25 C26.2 10.48, 26.07 16.26, 26 18.75 M26 18.75 C24.42 21.04, 23.01 25.15, 19.75 25 M26 18.75 C27.28 22.28, 22.69 25.89, 19.75 25 M19.75 25 C14.96 23.84, 9.91 26.11, 6.25 25 M19.75 25 C15.32 24.5, 11.4 24.54, 6.25 25 M6.25 25 C2.53 24, -0.18 23.71, 0 18.75 M6.25 25 C3.02 26.94, 0.01 21.67, 0 18.75 M0 18.75 C0.49 14.14, -0.33 9.67, 0 6.25 M0 18.75 C0.16 14.02, 0.29 10.86, 0 6.25 M0 6.25 C-0.6 2, 2.47 1.38, 6.25 0 M0 6.25 C1.99 3.08, 1.56 1.87, 6.25 0" stroke="#ffffff" stroke-width="2" fill="none"></path></g><g stroke-linecap="round" transform="translate(118.0553641380094 10.5) rotate(0 13 12.5)"><path d="M6.25 0 C10.5 -0.91, 14.69 -0.51, 19.75 0 M6.25 0 C11.69 -0.28, 16 0.25, 19.75 0 M19.75 0 C22.88 1.83, 25.43 0.7, 26 6.25 M19.75 0 C23.22 -1.64, 24.71 2.12, 26 6.25 M26 6.25 C25.78 10.04, 26.98 14.84, 26 18.75 M26 6.25 C26.15 9.64, 25.55 11.37, 26 18.75 M26 18.75 C25.09 23.07, 25.03 24.45, 19.75 25 M26 18.75 C24.78 23.8, 25.74 22.76, 19.75 25 M19.75 25 C15 25.87, 9.59 25.22, 6.25 25 M19.75 25 C16.64 24.54, 13.59 24.58, 6.25 25 M6.25 25 C1.9 25.8, 0.82 24.6, 0 18.75 M6.25 25 C2.09 23.75, 0.96 22.44, 0 18.75 M0 18.75 C-0.41 14.07, 0.41 10.57, 0 6.25 M0 18.75 C0.26 15.59, -0.22 11.35, 0 6.25 M0 6.25 C0.39 3.47, 3.82 0.86, 6.25 0 M0 6.25 C-0.52 3.96, 1.1 -0.56, 6.25 0" stroke="#ffffff" stroke-width="2" fill="none"></path></g><g stroke-linecap="round" transform="translate(144.90342530551845 10.135735003126229) rotate(0 13 12.5)"><path d="M6.25 0 C9.84 -0.39, 16.08 -0.82, 19.75 0 M6.25 0 C8.45 0.2, 11.51 0.7, 19.75 0 M19.75 0 C23.35 -1.38, 25.39 0.66, 26 6.25 M19.75 0 C22.63 0.03, 27.34 1.95, 26 6.25 M26 6.25 C26.96 10.68, 25.08 16.3, 26 18.75 M26 6.25 C25.53 8.42, 25.74 11.8, 26 18.75 M26 18.75 C27.12 22.37, 22.85 25.77, 19.75 25 M26 18.75 C27.82 20.68, 25.79 25.57, 19.75 25 M19.75 25 C17.12 25.44, 13.3 24.62, 6.25 25 M19.75 25 C16.68 24.59, 13.24 25.19, 6.25 25 M6.25 25 C2.9 26.69, 0.01 21.83, 0 18.75 M6.25 25 C3.05 24.52, 0.72 23.77, 0 18.75 M0 18.75 C0.49 15.44, -0.03 12.28, 0 6.25 M0 18.75 C-0.25 16.02, 0.06 13.78, 0 6.25 M0 6.25 C1.73 2.95, 1.63 1.63, 6.25 0 M0 6.25 C-0.98 1.53, 2.12 1.13, 6.25 0" stroke="#ffffff" stroke-width="2" fill="none"></path></g><g stroke-linecap="round"><g transform="translate(49.727560104315444 85.6589833666444) rotate(0 27.31547927070187 -31.281123236200926)"><path d="M-0.57 -1.02 C5.48 -5.29, 27.62 -15.85, 36.94 -25.91 C46.26 -35.98, 52.58 -55.35, 55.35 -61.41 M1.33 1.06 C7.69 -3.52, 30.19 -16.9, 39.13 -27.6 C48.07 -38.3, 52.6 -57.57, 54.97 -63.15" stroke="#2f9e44" stroke-width="2" fill="none"></path></g><g transform="translate(49.727560104315444 85.6589833666444) rotate(0 27.31547927070187 -31.281123236200926)"><path d="M55.36 -43.39 C53.59 -51.99, 56.5 -56.13, 54.97 -63.15 M55.36 -43.39 C55.71 -50.39, 56.19 -58.2, 54.97 -63.15" stroke="#2f9e44" stroke-width="2" fill="none"></path></g><g transform="translate(49.727560104315444 85.6589833666444) rotate(0 27.31547927070187 -31.281123236200926)"><path d="M42.57 -47.77 C45.29 -54.76, 52.71 -57.36, 54.97 -63.15 M42.57 -47.77 C47.94 -53.06, 53.49 -59.13, 54.97 -63.15" stroke="#2f9e44" stroke-width="2" fill="none"></path></g></g><mask></mask></svg>
